<svg xmlns="http://www.w3.org/2000/svg" width="32" height="32" viewBox="0 0 152 152" fill="none"><rect width="152" height="152" rx="0" fill="#211f1b"/><g transform="translate(16 16)" stroke="#f4f2ea" stroke-width="6" stroke-linecap="butt"><line x1="16" y1="24" x2="43" y2="24"/><line x1="53" y1="24" x2="91" y2="24"/><line x1="101" y1="24" x2="104" y2="24"/><line x1="16" y1="48" x2="19" y2="48"/><line x1="29" y1="48" x2="67" y2="48"/><line x1="77" y1="48" x2="104" y2="48"/><line x1="16" y1="72" x2="43" y2="72"/><line x1="53" y1="72" x2="91" y2="72"/><line x1="101" y1="72" x2="104" y2="72"/><line x1="16" y1="96" x2="19" y2="96"/><line x1="29" y1="96" x2="67" y2="96"/><line x1="77" y1="96" x2="104" y2="96"/><line x1="24" y1="16" x2="24" y2="19"/><line x1="24" y1="29" x2="24" y2="67"/><line x1="24" y1="77" x2="24" y2="104"/><line x1="48" y1="16" x2="48" y2="43"/><line x1="48" y1="53" x2="48" y2="91"/><line x1="48" y1="101" x2="48" y2="104"/><line x1="72" y1="16" x2="72" y2="19"/><line x1="72" y1="29" x2="72" y2="67"/><line x1="72" y1="77" x2="72" y2="104"/><line x1="96" y1="16" x2="96" y2="43"/><line x1="96" y1="53" x2="96" y2="91"/><line x1="96" y1="101" x2="96" y2="104"/></g></svg>
